# xmcd CD database file
#
# Track frame offsets:
#	150
#	19248
#	38694
#	53855
#	73666
#
# Disc length: 1218 seconds
#
# Revision: 0
# Processed by: cddbd v1.5.1PL0 Copyright (c) Steve Scherf et al.
# Submitted via: CDex 1.51
#
DISCID=3d04c005
DTITLE=TRIBECKER - O.K.WOMAN
DYEAR=2005
DGENRE=ロック (日本)
TTITLE0=MINT
TTITLE1=夜明けのハミング
TTITLE2=ひまわり
TTITLE3=NIGHT OUT
TTITLE4=花火と夜
EXTD=YEAR: 2005
EXTT0=
EXTT1=
EXTT2=
EXTT3=
EXTT4=
PLAYORDER=
